<svg id="Layer_1" data-name="Layer 1" xmlns="http://www.w3.org/2000/svg" viewBox="0 0 295.42 288.88"><defs><style>.cls-1{fill:#020202;stroke:#000;stroke-linecap:round;stroke-miterlimit:10;stroke-width:7px;}</style></defs><path class="cls-1" d="M240.93,48.89H18.19c-4.53,0-8.21-4.25-8.21-9.5s3.68-9.5,8.21-9.5H240.93c4.54,0,8.21,4.26,8.21,9.5S245.47,48.89,240.93,48.89Z"/><path class="cls-1" d="M240.93,149.41H18.19c-4.53,0-8.21-4.25-8.21-9.5s3.68-9.5,8.21-9.5H240.93c4.54,0,8.21,4.25,8.21,9.5S245.47,149.41,240.93,149.41Z"/><path class="cls-1" d="M240.93,249.93H18.19c-4.53,0-8.21-4.26-8.21-9.5s3.68-9.5,8.21-9.5H240.93c4.54,0,8.21,4.25,8.21,9.5S245.47,249.93,240.93,249.93Z"/></svg>